HIERARCHY
ROOT hip
{
  OFFSET 0 0 0
  CHANNELS 6 Xposition Yposition Zposition Zrotation Yrotation Xrotation
  JOINT abdomen
  {
    OFFSET 0 20.6881 -0.73152
    CHANNELS 3 Zrotation Xrotation Yrotation
    JOINT chest
    {
      OFFSET 0 11.7043 -0.48768
      CHANNELS 3 Zrotation Xrotation Yrotation
      JOINT neck
      {
        OFFSET 0 22.1894 -2.19456
        CHANNELS 3 Zrotation Xrotation Yrotation
        JOINT head
        {
          OFFSET -0.24384 7.07133 1.2192
          CHANNELS 3 Zrotation Xrotation Yrotation
          JOINT leftEye
          {
            OFFSET 4.14528 8.04674 8.04672
            CHANNELS 3 Zrotation Xrotation Yrotation
            End Site
            {
              OFFSET 1 0 0
            }
          }
          JOINT rightEye
          {
            OFFSET -3.6576 8.04674 8.04672
            CHANNELS 3 Zrotation Xrotation Yrotation
            End Site
            {
              OFFSET 1 0 0
            }
          }
        }
      }
      JOINT rCollar
      {
        OFFSET -2.68224 19.2634 -4.8768
        CHANNELS 3 Zrotation Xrotation Yrotation
        JOINT rShldr
        {
          OFFSET -8.77824 -1.95073 1.46304
          CHANNELS 3 Zrotation Xrotation Yrotation
          JOINT rForeArm
          {
            OFFSET -28.1742 -1.7115 0.48768
            CHANNELS 3 Zrotation Xrotation Yrotation
            JOINT rHand
            {
              OFFSET -22.5879 0.773209 7.07136
              CHANNELS 3 Zrotation Xrotation Yrotation
              JOINT rThumb1
              {
                OFFSET -1.2192 -0.487915 3.41376
                CHANNELS 3 Zrotation Xrotation Yrotation
                JOINT rThumb2
                {
                  OFFSET -3.37035 -0.52449 3.41376
                  CHANNELS 3 Zrotation Xrotation Yrotation
                  End Site
                  {
                    OFFSET -1.78271 -1.18214 1.43049
                  }
                }
              }
              JOINT rIndex1
              {
                OFFSET -7.75947 0.938293 5.60832
                CHANNELS 3 Zrotation Xrotation Yrotation
                JOINT rIndex2
                {
                  OFFSET -2.54057 -0.884171 1.56538
                  CHANNELS 3 Zrotation Xrotation Yrotation
                  End Site
                  {
                    OFFSET -1.62519 -0.234802 1.16502
                  }
                }
              }
              JOINT rMid1
              {
                OFFSET -8.24714 1.18213 3.41376
                CHANNELS 3 Zrotation Xrotation Yrotation
                JOINT rMid2
                {
                  OFFSET -3.10165 -0.590103 1.0647
                  CHANNELS 3 Zrotation Xrotation Yrotation
                  End Site
                  {
                    OFFSET -2.48547 -0.328903 0.83742
                  }
                }
              }
              JOINT rRing1
              {
                OFFSET -8.82822 0.546677 1.51678
                CHANNELS 3 Zrotation Xrotation Yrotation
                JOINT rRing2
                {
                  OFFSET -2.60934 -0.819778 -0.0198488
                  CHANNELS 3 Zrotation Xrotation Yrotation
                  End Site
                  {
                    OFFSET -2.33842 -0.294052 0.168128
                  }
                }
              }
              JOINT rPinky1
              {
                OFFSET -8.27202 -0.0477905 -0.4584
                CHANNELS 3 Zrotation Xrotation Yrotation
                JOINT rPinky2
                {
                  OFFSET -1.82734 -0.647385 -0.700984
                  CHANNELS 3 Zrotation Xrotation Yrotation
                  End Site
                  {
                    OFFSET -1.69225 -0.51767 -0.607171
                  }
                }
              }
            }
          }
        }
      }
      JOINT lCollar
      {
        OFFSET 2.68224 19.2634 -4.8768
        CHANNELS 3 Zrotation Xrotation Yrotation
        JOINT lShldr
        {
          OFFSET 8.77824 -1.95073 1.46304
          CHANNELS 3 Zrotation Xrotation Yrotation
          JOINT lForeArm
          {
            OFFSET 28.1742 -1.7115 0.48768
            CHANNELS 3 Zrotation Xrotation Yrotation
            JOINT lHand
            {
              OFFSET 22.5879 0.773209 7.07136
              CHANNELS 3 Zrotation Xrotation Yrotation
              JOINT lThumb1
              {
                OFFSET 1.2192 -0.487915 3.41376
                CHANNELS 3 Zrotation Xrotation Yrotation
                JOINT lThumb2
                {
                  OFFSET 3.37035 -0.52449 3.41376
                  CHANNELS 3 Zrotation Xrotation Yrotation
                  End Site
                  {
                    OFFSET 1.78271 -1.18214 1.43049
                  }
                }
              }
              JOINT lIndex1
              {
                OFFSET 7.75947 0.938293 5.60832
                CHANNELS 3 Zrotation Xrotation Yrotation
                JOINT lIndex2
                {
                  OFFSET 2.54057 -0.884171 1.56538
                  CHANNELS 3 Zrotation Xrotation Yrotation
                  End Site
                  {
                    OFFSET 1.62519 -0.234802 1.16502
                  }
                }
              }
              JOINT lMid1
              {
                OFFSET 8.24714 1.18213 3.41376
                CHANNELS 3 Zrotation Xrotation Yrotation
                JOINT lMid2
                {
                  OFFSET 3.10165 -0.590103 1.0647
                  CHANNELS 3 Zrotation Xrotation Yrotation
                  End Site
                  {
                    OFFSET 2.48547 -0.328903 0.83742
                  }
                }
              }
              JOINT lRing1
              {
                OFFSET 8.82822 0.546677 1.51678
                CHANNELS 3 Zrotation Xrotation Yrotation
                JOINT lRing2
                {
                  OFFSET 2.60934 -0.819778 -0.0198488
                  CHANNELS 3 Zrotation Xrotation Yrotation
                  End Site
                  {
                    OFFSET 2.33842 -0.294052 0.168128
                  }
                }
              }
              JOINT lPinky1
              {
                OFFSET 8.27202 -0.0477905 -0.4584
                CHANNELS 3 Zrotation Xrotation Yrotation
                JOINT lPinky2
                {
                  OFFSET 1.82734 -0.647385 -0.700984
                  CHANNELS 3 Zrotation Xrotation Yrotation
                  End Site
                  {
                    OFFSET 1.69225 -0.51767 -0.607171
                  }
                }
              }
            }
          }
        }
      }
    }
  }
  JOINT rButtock
  {
    OFFSET -8.77824 4.35084 1.2192
    CHANNELS 3 Zrotation Xrotation Yrotation
    JOINT rThigh
    {
      OFFSET 0 -1.70687 -2.19456
      CHANNELS 3 Zrotation Xrotation Yrotation
      JOINT rShin
      {
        OFFSET 0 -36.8199 0.73152
        CHANNELS 3 Zrotation Xrotation Yrotation
        JOINT rFoot
        {
          OFFSET 0.73152 -45.1104 -5.12064
          CHANNELS 3 Zrotation Xrotation Yrotation
          End Site
          {
            OFFSET -1.1221 -3.69964 12.103
          }
        }
      }
    }
  }
  JOINT lButtock
  {
    OFFSET 8.77824 4.35084 1.2192
    CHANNELS 3 Zrotation Xrotation Yrotation
    JOINT lThigh
    {
      OFFSET 0 -1.70687 -2.19456
      CHANNELS 3 Zrotation Xrotation Yrotation
      JOINT lShin
      {
        OFFSET 0 -36.8199 0.73152
        CHANNELS 3 Zrotation Xrotation Yrotation
        JOINT lFoot
        {
          OFFSET -0.73152 -45.1104 -5.12064
          CHANNELS 3 Zrotation Xrotation Yrotation
          End Site
          {
            OFFSET 1.1221 -3.69964 12.103
          }
        }
      }
    }
  }
}
MOTION
Frames:	8
Frame Time:	0.00833333
-3.47797 82.4855 53.0622 0.0 0.0 0.0 -4.35894 0.00629241 -0.117455 -1.20158 0.0324762 -0.207681 2.59384e-14 -2.38542e-15 1.14301e-15 7.84485e-14 -6.36111e-15 3.67596e-15 -0.0 0.0 0.0 -0.0 0.0 0.0 1.34157e-14 -2.38775e-16 6.95746e-16 2.7643e-13 -3.80176e-15 1.39149e-14 4.65415e-12 -1.54535e-12 1.78111e-13 5.36936e-11 7.58935e-13 2.5508e-12 1.26564e-10 -1.70539e-12 5.91901e-12 2.18564e-10 -2.94519e-12 1.02279e-11 1.26567e-10 -1.70438e-12 5.90947e-12 7.73091 5.47488 0.417314 1.26564e-10 -1.70547e-12 5.92219e-12 2.90554 0.965183 0.102902 1.26574e-10 -1.70527e-12 5.92299e-12 10.2786 0.731801 0.0259123 1.2656e-10 -1.70279e-12 5.93173e-12 2.22167 -0.733487 -0.20892 1.34211e-14 -2.32174e-16 2.98177e-16 2.71981e-13 -3.8266e-15 1.25234e-14 4.72377e-12 1.27282e-12 2.13097e-13 5.36227e-11 -2.06873e-12 2.54444e-12 1.26567e-10 -1.72601e-12 5.93491e-12 2.18583e-10 -2.98336e-12 1.02493e-11 1.26565e-10 -1.72585e-12 5.94764e-12 -7.73091 5.47488 -0.417314 1.26566e-10 -1.72654e-12 5.93173e-12 -2.90554 0.965183 -0.102902 1.26556e-10 -1.72605e-12 5.93253e-12 -10.2786 0.731801 -0.0259123 1.26575e-10 -1.72386e-12 5.92219e-12 -2.22167 -0.733487 0.20892 -2.03217e-16 0.0 -3.88251e-19 -2.88817 -1.94435 0.0304157 -0.00797258 -2.07874 -0.0650924 -0.422281 4.00217 0.127119 2.03217e-16 0.0 3.88251e-19 -3.72549 -11.2507 0.483809 -0.0143126 14.7725 -0.388791 0.544945 -3.54242 0.0125003
-5.50762 82.1976 51.0886 -8.1549 -1.2211 7.8089 -3.20275 -1.91524 0.090002 -1.70525 -2.94653 -0.255232 -3.26159 4.86246 -4.38267 6.88594 -3.43121 -8.32989 -0.0 0.0 0.0 -0.0 0.0 0.0 -7.30164e-14 -8.63337e-14 1.33166e-14 23.0349 1.53188 -1.89653 -3.93331 -1.73352 6.20077 0.228204 10.6428 1.4046 1.23248e-10 -6.78344e-10 8.78895e-10 2.39575e-10 -1.19649e-09 1.51331e-09 1.23253e-10 -6.78343e-10 8.78882e-10 7.73091 5.47488 0.417314 1.23248e-10 -6.78345e-10 8.78896e-10 2.90554 0.965183 0.102902 1.23257e-10 -6.78345e-10 8.789e-10 10.2786 0.731801 0.0259123 1.23244e-10 -6.78342e-10 8.78911e-10 2.22167 -0.733487 -0.20892 -7.30474e-14 -8.63303e-14 1.29804e-14 -23.5899 -0.927928 0.403462 4.38824 -2.02572 -6.82248 -0.0295074 4.00581 -0.559069 6.65492e-10 3.22347e-10 2.32432e-10 1.15291e-09 5.61144e-10 3.94289e-10 6.65489e-10 3.22349e-10 2.32443e-10 -7.73091 5.47488 -0.417314 6.65492e-10 3.22347e-10 2.32432e-10 -2.90554 0.965183 -0.102902 6.6548e-10 3.22348e-10 2.32432e-10 -10.2786 0.731801 -0.0259123 6.65501e-10 3.2235e-10 2.32425e-10 -2.22167 -0.733487 0.20892 -2.03217e-16 0.0 -3.88251e-19 -1.28337 -1.79679 6.74413 0.00282466 -1.75857 0.0299397 -0.914197 1.00901 -6.33977 2.03217e-16 0.0 3.88251e-19 -2.59694 -9.97613 -8.50577 -0.00982236 14.2985 -0.318526 1.14116 -7.24484 11.5047
-5.4345 82.1836 51.0547 -7.9207 -1.2912 7.8248 -1.97347 -3.92999 0.315988 -2.25583 -6.08976 -0.30557 -5.87696 9.91429 -9.12876 13.0966 -6.84167 -17.2433 -0.0 0.0 0.0 -0.0 0.0 0.0 -1.73597e-13 -1.84277e-13 2.88517e-14 47.5067 3.06826 -3.9037 -7.6732 -3.48955 12.7543 -0.138934 21.9315 3.06873 1.3433e-10 -1.47702e-09 1.89244e-09 2.89608e-10 -2.60461e-09 3.25816e-09 1.34336e-10 -1.47702e-09 1.89243e-09 7.73091 5.47488 0.417314 1.3433e-10 -1.47703e-09 1.89244e-09 2.90554 0.965183 0.102902 1.34339e-10 -1.47703e-09 1.89245e-09 10.2786 0.731801 0.0259123 1.34327e-10 -1.47702e-09 1.89246e-09 2.22167 -0.733487 -0.20892 -1.73664e-13 -1.84278e-13 2.85846e-14 -48.5111 -1.77091 0.786683 8.54802 -4.09973 -14.1299 0.0265685 8.09512 -1.13973 1.3e-09 7.04853e-10 5.1654e-10 2.25339e-09 1.22733e-09 8.76333e-10 1.3e-09 7.04856e-10 5.16549e-10 -7.73091 5.47488 -0.417314 1.30001e-09 7.04854e-10 5.16543e-10 -2.90554 0.965183 -0.102902 1.29999e-09 7.04855e-10 5.16543e-10 -10.2786 0.731801 -0.0259123 1.30001e-09 7.04856e-10 5.16539e-10 -2.22167 -0.733487 0.20892 -2.03217e-16 0.0 -3.88251e-19 0.379683 -1.60789 13.8344 0.0130708 -1.41485 0.130386 -2.16667 -2.09533 -13.1833 2.03217e-16 0.0 3.88251e-19 -0.946395 -8.43678 -17.8775 -0.0037879 13.8019 -0.245673 3.34461 -10.4664 23.8238
-5.36162 82.1816 51.0144 -7.7602 -1.3811 7.794 -0.848462 -5.75808 0.507326 -2.72773 -8.90446 -0.353584 -7.51532 14.241 -13.5237 17.7366 -9.42335 -25.3097 -0.0 0.0 0.0 -0.0 0.0 0.0 -2.45881e-13 -2.58524e-13 3.85584e-14 69.4092 4.57548 -5.70579 -10.6927 -4.95738 18.6661 -1.11454 31.8446 4.87672 1.16617e-10 -2.03162e-09 2.62485e-09 2.81597e-10 -3.58359e-09 4.51946e-09 1.16623e-10 -2.03162e-09 2.62483e-09 7.73091 5.47488 0.417314 1.16617e-10 -2.03162e-09 2.62484e-09 2.90554 0.965183 0.102902 1.16624e-10 -2.03162e-09 2.62485e-09 10.2786 0.731801 0.0259123 1.16613e-10 -2.03162e-09 2.62487e-09 2.22167 -0.733487 -0.20892 -2.45984e-13 -2.58527e-13 3.83449e-14 -70.7304 -2.78323 1.21166 11.7456 -5.73322 -20.5621 0.150433 12.0128 -1.71058 1.74334e-09 9.70494e-10 6.85427e-10 3.02157e-09 1.6894e-09 1.16237e-09 1.74334e-09 9.70498e-10 6.85434e-10 -7.73091 5.47488 -0.417314 1.74334e-09 9.70496e-10 6.85432e-10 -2.90554 0.965183 -0.102902 1.74333e-09 9.70496e-10 6.85432e-10 -10.2786 0.731801 -0.0259123 1.74335e-09 9.70497e-10 6.85431e-10 -2.22167 -0.733487 0.20892 -2.03217e-16 0.0 -3.88251e-19 1.82158 -1.44486 20.1683 0.0212323 -1.1182 0.219918 -3.8922 -4.68027 -19.337 2.03217e-16 0.0 3.88251e-19 0.876576 -6.95896 -26.286 0.00274221 13.3504 -0.178932 6.54447 -12.4331 35.1507
-5.31559 82.1912 50.9762 -7.7076 -1.3757 7.8163 -0.0151831 -7.11977 0.609557 -2.99271 -10.8979 -0.393206 -8.33911 17.0889 -16.6785 20.5233 -10.7842 -30.9424 -0.0 0.0 0.0 -0.0 0.0 0.0 -2.47425e-13 -2.73527e-13 3.3694e-14 84.699 6.02654 -6.98377 -12.6701 -5.92983 22.9146 -2.22925 38.4004 6.39562 2.69139e-11 -1.97601e-09 2.65438e-09 1.28477e-10 -3.48972e-09 4.57188e-09 2.69206e-11 -1.97601e-09 2.65436e-09 7.73091 5.47488 0.417314 2.69138e-11 -1.97601e-09 2.65438e-09 2.90554 0.965183 0.102902 2.69211e-11 -1.97601e-09 2.65439e-09 10.2786 0.731801 0.0259123 2.69105e-11 -1.97601e-09 2.65441e-09 2.22167 -0.733487 -0.20892 -2.47565e-13 -2.7353e-13 3.34952e-14 -86.2019 -4.21882 1.74143 13.5781 -6.61905 -24.709 0.304214 15.5045 -2.23438 1.70875e-09 9.43973e-10 5.6626e-10 2.95899e-09 1.64116e-09 9.58381e-10 1.70874e-09 9.43978e-10 5.66266e-10 -7.73091 5.47488 -0.417314 1.70875e-09 9.43975e-10 5.66266e-10 -2.90554 0.965183 -0.102902 1.70873e-09 9.43976e-10 5.66266e-10 -10.2786 0.731801 -0.0259123 1.70875e-09 9.43977e-10 5.66266e-10 -2.22167 -0.733487 0.20892 -2.03217e-16 0.0 -3.88251e-19 2.7977 -1.37668 24.6139 0.0265149 -0.939236 0.282214 -5.39412 -6.2918 -23.6672 2.03217e-16 0.0 3.88251e-19 2.2769 -5.87379 -32.4156 0.00813677 13.0113 -0.126858 9.48084 -13.182 43.467
-5.27527 82.197 50.9993 -7.655 -1.4675 7.9238 0.390203 -7.8427 0.564995 -2.95239 -11.739 -0.424026 -8.76083 18.1152 -17.8417 21.5125 -11.0084 -32.9878 -0.0 0.0 0.0 -0.0 0.0 0.0 -1.20199e-13 -1.97503e-13 4.20321e-15 90.6341 7.49052 -7.51942 -13.5144 -6.36835 24.8094 -2.67053 40.2611 6.91095 -2.68151e-10 -7.68905e-10 1.45302e-09 -4.15384e-10 -1.37548e-09 2.5092e-09 -2.68145e-10 -7.68904e-10 1.453e-09 7.73091 5.47488 0.417314 -2.68151e-10 -7.68909e-10 1.45301e-09 2.90554 0.965183 0.102902 -2.68143e-10 -7.68909e-10 1.45302e-09 10.2786 0.731801 0.0259123 -2.68154e-10 -7.68907e-10 1.45303e-09 2.22167 -0.733487 -0.20892 -1.20387e-13 -1.975e-13 3.94735e-15 -92.2352 -6.11424 2.40928 13.908 -6.67858 -25.5938 0.449125 18.3152 -2.67057 8.4769e-10 3.93666e-10 -1.80838e-10 1.45611e-09 6.7557e-10 -3.16615e-10 8.47686e-10 3.93671e-10 -1.80832e-10 -7.73091 5.47488 -0.417314 8.47693e-10 3.93668e-10 -1.80833e-10 -2.90554 0.965183 -0.102902 8.47677e-10 3.93668e-10 -1.80832e-10 -10.2786 0.731801 -0.0259123 8.47698e-10 3.9367e-10 -1.80833e-10 -2.22167 -0.733487 0.20892 -2.03217e-16 0.0 -3.88251e-19 3.14996 -1.44454 26.4203 0.0288181 -0.926937 0.305523 -5.98684 -6.78443 -25.3799 2.03217e-16 0.0 3.88251e-19 2.71261 -5.378 -35.3298 0.0103569 12.8235 -0.0990844 11.0305 -13.3709 47.3534
-5.22712 82.1815 51.0577 -7.5757 -1.7038 8.1666 0.486617 -8.10872 0.415933 -2.69309 -11.757 -0.447851 -9.06448 17.9069 -17.5167 21.3681 -10.5664 -32.4446 -0.0 0.0 0.0 -0.0 0.0 0.0 9.75898e-14 -5.68441e-14 -4.26766e-14 89.8545 8.9653 -7.52341 -13.626 -6.47435 25.0124 -2.41496 38.7912 6.54345 -7.04924e-10 1.24654e-09 -6.15811e-10 -1.22941e-09 2.15719e-09 -1.04415e-09 -7.04918e-10 1.24654e-09 -6.1582e-10 7.73091 5.47488 0.417314 -7.04923e-10 1.24654e-09 -6.15814e-10 2.90554 0.965183 0.102902 -7.04914e-10 1.24654e-09 -6.15808e-10 10.2786 0.731801 0.0259123 -7.04925e-10 1.24654e-09 -6.15801e-10 2.22167 -0.733487 -0.20892 9.73467e-14 -5.68323e-14 -4.304e-14 -91.4915 -8.34199 3.18322 13.2143 -6.18537 -24.143 0.578472 20.6436 -3.04345 -5.96201e-10 -5.25311e-10 -1.36576e-09 -1.06236e-09 -9.356e-10 -2.33828e-09 -5.96203e-10 -5.25307e-10 -1.36575e-09 -7.73091 5.47488 -0.417314 -5.96198e-10 -5.25308e-10 -1.36576e-09 -2.90554 0.965183 -0.102902 -5.96212e-10 -5.25308e-10 -1.36576e-09 -10.2786 0.731801 -0.0259123 -5.96194e-10 -5.25306e-10 -1.36576e-09 -2.22167 -0.733487 0.20892 -2.03217e-16 0.0 -3.88251e-19 3.06035 -1.61339 26.3417 0.0291755 -1.03359 0.30103 -5.80335 -6.55043 -25.201 2.03217e-16 0.0 3.88251e-19 2.36398 -5.2926 -35.9574 0.0100391 12.744 -0.0884078 11.4142 -13.5425 48.0798
-5.21287 82.1415 51.0467 -7.6645 -1.8769 8.4008 0.468223 -8.1695 0.257395 -2.36311 -11.4501 -0.461587 -9.31846 17.184 -16.6166 20.7889 -9.84194 -30.9029 -0.0 0.0 0.0 -0.0 0.0 0.0 3.04028e-13 9.67287e-14 -8.97489e-14 86.3891 10.3196 -7.31686 -13.444 -6.44662 24.52 -1.95718 36.0894 5.89632 -1.03106e-09 3.1098e-09 -2.63659e-09 -1.85137e-09 5.42783e-09 -4.51749e-09 -1.03105e-09 3.1098e-09 -2.6366e-09 7.73091 5.47488 0.417314 -1.03106e-09 3.1098e-09 -2.6366e-09 2.90554 0.965183 0.102902 -1.03105e-09 3.1098e-09 -2.6366e-09 10.2786 0.731801 0.0259123 -1.03106e-09 3.1098e-09 -2.63659e-09 2.22167 -0.733487 -0.20892 3.03745e-13 9.67488e-14 -9.02121e-14 -87.9404 -10.9088 4.0324 12.0697 -5.45482 -21.7813 0.707211 22.9168 -3.41368 -2.02146e-09 -1.40814e-09 -2.36636e-09 -3.54348e-09 -2.48035e-09 -4.04266e-09 -2.02146e-09 -1.40813e-09 -2.36635e-09 -7.73091 5.47488 -0.417314 -2.02146e-09 -1.40813e-09 -2.36636e-09 -2.90554 0.965183 -0.102902 -2.02147e-09 -1.40814e-09 -2.36636e-09 -10.2786 0.731801 -0.0259123 -2.02146e-09 -1.40813e-09 -2.36637e-09 -2.22167 -0.733487 0.20892 -2.03217e-16 0.0 -3.88251e-19 2.80251 -1.83278 25.5036 0.0286409 -1.18477 0.286809 -5.31745 -6.03401 -24.2409 2.03217e-16 0.0 3.88251e-19 1.68552 -5.3423 -35.7759 0.00952719 12.718 -0.0781261 11.4388 -13.8615 47.6614
